<svg width="196" height="76" viewBox="0 0 196 76" fill="none" xmlns="http://www.w3.org/2000/svg">
<rect x="0.548462" y="0.5" width="194.295" height="74.3015" rx="37.1508" stroke="#FF553E"/>
<path d="M101.168 30.4663C100.266 30.4663 99.5061 30.1496 98.9051 29.5262C98.3091 28.9202 97.9763 28.0848 97.9912 27.2319C97.9912 26.3217 98.2991 25.5511 98.9051 24.9401C99.5036 24.3167 100.264 24 101.165 24C102.057 24 102.817 24.3167 103.428 24.9401C104.034 25.5711 104.342 26.3416 104.342 27.2319C104.332 28.1446 104.024 28.9152 103.428 29.5237C102.829 30.1521 102.069 30.4663 101.168 30.4663ZM74.3431 30.4663C73.4615 30.4663 72.6965 30.1546 72.0707 29.5387C71.4498 28.9252 71.1344 28.1496 71.1344 27.2344C71.1344 26.3192 71.4498 25.5436 72.0707 24.9302C72.6841 24.3142 73.449 24.0025 74.3431 24.0025C74.7802 24.0025 75.2049 24.0898 75.6122 24.2668C76.012 24.4389 76.3374 24.6733 76.5783 24.9601L76.6379 25.0324L75.9648 25.6958L75.8953 25.6135C75.5153 25.1596 75.0062 24.9377 74.3332 24.9377C73.7322 24.9377 73.2081 25.1521 72.776 25.5761C72.3414 26.0025 72.1204 26.5611 72.1204 27.2369C72.1204 27.9127 72.3414 28.4713 72.776 28.8978C73.2081 29.3217 73.7322 29.5362 74.3332 29.5362C74.9739 29.5362 75.5128 29.3217 75.9326 28.8978C76.1809 28.6484 76.3349 28.2993 76.3895 27.8579H74.2313V26.9252H77.3159L77.3283 27.01C77.3506 27.1671 77.373 27.3292 77.373 27.4788C77.373 28.3392 77.1147 29.0349 76.6031 29.5486C76.022 30.1571 75.262 30.4663 74.3431 30.4663ZM110.009 30.3342H109.058L106.145 25.6534L106.169 26.4963V30.3317H105.218V24.1347H106.304L106.333 24.182L109.073 28.591L109.048 27.7506V24.1347H110.009V30.3342ZM94.02 30.3342H93.0564V25.0673H91.385V24.1347H95.689V25.0673H94.0175V30.3342H94.02ZM90.6002 30.3342H89.6391V24.1347H90.6002V30.3342ZM85.1986 30.3342H84.2374V25.0673H82.566V24.1347H86.87V25.0673H85.1986V30.3342ZM81.9576 30.3242H78.272V24.1347H81.9576V25.0673H79.2356V26.7681H81.6918V27.6908H79.2356V29.3915H81.9576V30.3242ZM99.6104 28.8853C100.04 29.3167 100.562 29.5337 101.168 29.5337C101.791 29.5337 102.3 29.3217 102.725 28.8853C103.147 28.4613 103.361 27.9052 103.361 27.2344C103.361 26.5636 103.147 26.005 102.727 25.5835C102.298 25.1521 101.774 24.9352 101.17 24.9352C100.547 24.9352 100.038 25.1471 99.6154 25.5835C99.1932 26.0075 98.9796 26.5636 98.9796 27.2344C98.9796 27.9052 99.1907 28.4638 99.6104 28.8853Z" fill="#FF553E"/>
<path fill-rule="evenodd" clip-rule="evenodd" d="M97.9013 38.9898C95.5543 38.9898 93.6519 40.7778 93.6519 43.2442C93.6519 45.688 95.5667 47.4985 97.9013 47.4985C100.248 47.4985 102.151 45.698 102.151 43.2442C102.151 40.7778 100.248 38.9898 97.9013 38.9898ZM97.9013 45.8127C96.6173 45.8127 95.5121 44.7454 95.5121 43.2342C95.5121 41.7005 96.6198 40.6556 97.9013 40.6556C99.1853 40.6556 100.29 41.7005 100.29 43.2342C100.293 44.7554 99.1853 45.8127 97.9013 45.8127ZM88.6302 38.9898C86.2833 38.9898 84.3809 40.7778 84.3809 43.2442C84.3809 45.688 86.2957 47.4985 88.6302 47.4985C90.9772 47.4985 92.8796 45.698 92.8796 43.2442C92.8796 40.7778 90.9747 38.9898 88.6302 38.9898ZM88.6302 45.8127C87.3462 45.8127 86.2411 44.7454 86.2411 43.2342C86.2411 41.7005 87.3487 40.6556 88.6302 40.6556C89.9142 40.6556 91.0194 41.7005 91.0194 43.2342C91.0194 44.7554 89.9142 45.8127 88.6302 45.8127ZM77.5983 40.289V42.0895H81.9023C81.7707 43.0995 81.4379 43.8452 80.9288 44.3564C80.298 44.9898 79.3244 45.6781 77.6083 45.6781C74.9633 45.6781 72.8945 43.5334 72.8945 40.8776C72.8945 38.2217 74.9633 36.0771 77.6083 36.0771C79.0363 36.0771 80.0769 36.6432 80.8493 37.3664L82.1209 36.0895C81.048 35.0571 79.6199 34.2666 77.6182 34.2666C73.9898 34.2666 70.9449 37.2342 70.9449 40.8676C70.9449 44.511 73.9873 47.4686 77.6182 47.4686C79.5777 47.4686 81.048 46.8252 82.2103 45.6132C83.3949 44.4237 83.7699 42.7454 83.7699 41.3913C83.7699 40.9698 83.7377 40.5908 83.6706 40.2691H77.5959C77.5983 40.2666 77.5983 40.289 77.5983 40.289ZM122.722 41.6905C122.367 40.7354 121.294 38.9798 119.093 38.9798C116.913 38.9798 115.1 40.703 115.1 43.2342C115.1 45.6232 116.893 47.4885 119.304 47.4885C121.242 47.4885 122.369 46.299 122.834 45.6008L121.396 44.6332C120.919 45.3439 120.256 45.8102 119.314 45.8102C118.363 45.8102 117.698 45.3763 117.255 44.521L122.92 42.1644C122.92 42.1669 122.722 41.6905 122.722 41.6905ZM116.945 43.112C116.9 41.4686 118.217 40.6332 119.158 40.6332C119.9 40.6332 120.519 40.9998 120.73 41.5334L116.945 43.112ZM112.343 47.2342H114.203V34.7354H112.343V47.2342ZM109.288 39.9349H109.221C108.802 39.4337 108.004 38.9798 106.986 38.9798C104.873 38.9798 102.925 40.8476 102.925 43.2466C102.925 45.6357 104.863 47.4811 106.986 47.4811C107.992 47.4811 108.802 47.0247 109.221 46.5135H109.288V47.1245C109.288 48.7479 108.424 49.6232 107.031 49.6232C105.891 49.6232 105.183 48.8003 104.895 48.112L103.278 48.7903C103.743 49.9125 104.982 51.3015 107.028 51.3015C109.209 51.3015 111.057 50.0122 111.057 46.8676V39.2342H109.298V39.9349C109.301 39.9349 109.288 39.9349 109.288 39.9349ZM107.152 45.8127C105.868 45.8127 104.796 44.7354 104.796 43.2466C104.796 41.7454 105.868 40.6581 107.152 40.6581C108.424 40.6581 109.41 41.7579 109.41 43.2466C109.422 44.7354 108.427 45.8127 107.152 45.8127ZM131.432 34.7354H126.984V47.2342H128.844V42.501H131.434C133.493 42.501 135.517 41.0023 135.517 38.6232C135.517 36.2442 133.5 34.7354 131.432 34.7354ZM131.486 40.7554H128.841V36.4661H131.486C132.879 36.4661 133.667 37.6207 133.667 38.6107C133.667 39.5908 132.869 40.7554 131.486 40.7554ZM142.973 38.9673C141.621 38.9673 140.228 39.5683 139.652 40.8776L141.301 41.5659C141.656 40.8776 142.307 40.6432 142.995 40.6432C143.958 40.6432 144.932 41.2217 144.954 42.2541V42.3863C144.622 42.1968 143.891 41.9075 143.017 41.9075C141.237 41.9075 139.431 42.8851 139.431 44.718C139.431 46.3963 140.891 47.4736 142.518 47.4736C143.767 47.4736 144.455 46.9075 144.885 46.2516H144.952V47.2192H146.745V42.4312C146.745 40.2018 145.096 38.9673 142.973 38.9673ZM142.739 45.8127C142.131 45.8127 141.279 45.5135 141.279 44.7454C141.279 43.7778 142.342 43.4112 143.248 43.4112C144.068 43.4112 144.455 43.5883 144.942 43.8327C144.808 44.9549 143.864 45.8028 142.739 45.8127ZM153.287 39.2342L151.151 44.6556H151.084L148.871 39.2342H146.869L150.19 46.8127L148.297 51.0247H150.234L155.343 39.2342H153.287ZM136.543 47.2342H138.403V34.7354H136.543V47.2342Z" fill="#FF553E"/>
<path d="M56.6038 41.3505L53.1175 37.82L56.6011 34.2721C59.0894 35.6607 60.9999 36.7216 61.367 36.9162C62.5525 37.5615 61.9501 38.3923 61.367 38.7063C61.2408 38.7698 60.1887 39.3553 58.6278 40.2238L58.6265 40.2246C58.3752 40.3644 58.1108 40.5116 57.835 40.6652C57.4457 40.882 57.0338 41.1114 56.6038 41.3505Z" fill="#FF553E"/>
<path d="M55.9691 41.7035L52.6272 38.3193L41.46 49.6923C41.5946 49.6513 41.7374 49.5891 41.8899 49.5043C42.0042 49.441 42.2821 49.2873 42.6905 49.0614L42.7148 49.0479C45.0132 47.7767 51.3239 44.2862 55.9691 41.7035Z" fill="#FF553E"/>
<path d="M40.5477 49.6229C40.22 49.3993 40.0485 48.9316 40.0485 48.3411V27.3911C40.0485 26.7381 40.2759 26.3363 40.5908 26.1302L52.1356 37.8214L40.5477 49.6229Z" fill="#FF553E"/>
<path d="M41.4455 26L52.6258 37.3221L55.9549 33.9316C53.8906 32.7915 42.6353 26.5759 41.8897 26.1744C41.7481 26.0892 41.5972 26.0318 41.4455 26Z" fill="#FF553E"/>
</svg>
