<svg width="180" height="74" viewBox="0 0 180 74" fill="none" xmlns="http://www.w3.org/2000/svg">
<rect x="0.0484619" width="179.517" height="73.0542" rx="36.5271" fill="#FF553E"/>
<path d="M54.8458 35.8636C54.8565 35.0289 55.0782 34.2105 55.4903 33.4846C55.9023 32.7586 56.4912 32.1487 57.2023 31.7115C56.7506 31.0663 56.1547 30.5354 55.4618 30.1608C54.769 29.7863 53.9984 29.5785 53.2112 29.5538C51.5319 29.3776 49.904 30.5587 49.0483 30.5587C48.176 30.5587 46.8585 29.5713 45.4398 29.6005C44.5221 29.6302 43.6278 29.897 42.8439 30.3751C42.06 30.8531 41.4133 31.5261 40.9669 32.3284C39.0329 35.6768 40.4754 40.5979 42.3281 43.3045C43.255 44.6298 44.3382 46.1103 45.7557 46.0578C47.1427 46.0002 47.6608 45.1733 49.3351 45.1733C50.9938 45.1733 51.4799 46.0578 52.9261 46.0244C54.4145 46.0002 55.3522 44.6931 56.2466 43.3552C56.9126 42.4109 57.425 41.3672 57.765 40.2627C56.9003 39.897 56.1624 39.2848 55.6433 38.5025C55.1241 37.7202 54.8468 36.8024 54.8458 35.8636Z" fill="white"/>
<path d="M52.1134 27.7738C52.9249 26.7996 53.3247 25.5474 53.2279 24.2832C51.9881 24.4134 50.8428 25.006 50.0203 25.9428C49.6182 26.4005 49.3102 26.9329 49.1139 27.5097C48.9177 28.0865 48.837 28.6962 48.8766 29.3042C49.4967 29.3106 50.1103 29.1762 50.6709 28.9111C51.2316 28.646 51.7248 28.2571 52.1134 27.7738Z" fill="white"/>
<path d="M72.3785 42.7027H67.6451L66.5084 46.0591H64.5035L68.9869 33.6411H71.0699L75.5533 46.0591H73.5143L72.3785 42.7027ZM68.1354 41.1538H71.8874L70.0378 35.7066H69.986L68.1354 41.1538Z" fill="white"/>
<path d="M85.235 41.5327C85.235 44.3462 83.7292 46.1538 81.4567 46.1538C80.881 46.1839 80.3085 46.0513 79.8047 45.7711C79.301 45.491 78.8862 45.0747 78.6081 44.5698H78.5651V49.0542H76.7067V37.0053H78.5055V38.5112H78.5397C78.8307 38.0087 79.2524 37.5945 79.76 37.3127C80.2676 37.0308 80.8422 36.8919 81.4225 36.9106C83.7203 36.9106 85.235 38.727 85.235 41.5327ZM83.3249 41.5327C83.3249 39.6997 82.3776 38.4946 80.9323 38.4946C79.5124 38.4946 78.5573 39.7251 78.5573 41.5327C78.5573 43.3569 79.5124 44.5786 80.9323 44.5786C82.3776 44.5786 83.3249 43.3823 83.3249 41.5327Z" fill="white"/>
<path d="M95.1999 41.5327C95.1999 44.3462 93.694 46.1538 91.4215 46.1538C90.8459 46.1839 90.2734 46.0513 89.7696 45.7711C89.2658 45.491 88.8511 45.0747 88.5729 44.5698H88.5299V49.0541H86.6715V37.0053H88.4703V38.5112H88.5045C88.7955 38.0087 89.2172 37.5945 89.7248 37.3127C90.2325 37.0308 90.807 36.8919 91.3873 36.9106C93.6852 36.9106 95.1999 38.727 95.1999 41.5327ZM93.2897 41.5327C93.2897 39.6997 92.3424 38.4946 90.8971 38.4946C89.4772 38.4946 88.5221 39.7251 88.5221 41.5327C88.5221 43.3569 89.4772 44.5786 90.8971 44.5786C92.3424 44.5786 93.2897 43.3823 93.2897 41.5327H93.2897Z" fill="white"/>
<path d="M101.787 42.5992C101.924 43.8306 103.121 44.6392 104.756 44.6392C106.322 44.6392 107.449 43.8306 107.449 42.7202C107.449 41.7564 106.769 41.1792 105.16 40.7837L103.55 40.396C101.27 39.8452 100.212 38.7788 100.212 37.0483C100.212 34.9058 102.079 33.4341 104.73 33.4341C107.354 33.4341 109.153 34.9058 109.214 37.0483H107.338C107.225 35.8091 106.201 35.061 104.704 35.061C103.207 35.061 102.182 35.8179 102.182 36.9194C102.182 37.7974 102.837 38.314 104.437 38.7094L105.805 39.0454C108.353 39.6479 109.412 40.6714 109.412 42.4878C109.412 44.811 107.561 46.2661 104.618 46.2661C101.864 46.2661 100.005 44.8452 99.8844 42.5991L101.787 42.5992Z" fill="white"/>
<path d="M113.423 34.8628V37.0054H115.145V38.4771H113.423V43.4683C113.423 44.2437 113.768 44.605 114.525 44.605C114.729 44.6014 114.933 44.5871 115.136 44.562V46.0249C114.796 46.0885 114.45 46.1172 114.104 46.1108C112.271 46.1108 111.556 45.4223 111.556 43.6665V38.4771H110.24V37.0054H111.556V34.8628H113.423Z" fill="white"/>
<path d="M116.142 41.5327C116.142 38.6841 117.82 36.894 120.436 36.894C123.061 36.894 124.731 38.684 124.731 41.5327C124.731 44.3892 123.07 46.1714 120.436 46.1714C117.803 46.1714 116.142 44.3892 116.142 41.5327ZM122.838 41.5327C122.838 39.5786 121.942 38.4253 120.436 38.4253C118.93 38.4253 118.036 39.5874 118.036 41.5327C118.036 43.4946 118.93 44.6392 120.436 44.6392C121.942 44.6392 122.837 43.4946 122.837 41.5327H122.838Z" fill="white"/>
<path d="M126.261 37.0055H128.034V38.5465H128.077C128.197 38.0652 128.479 37.6399 128.875 37.342C129.272 37.0441 129.759 36.8918 130.255 36.9108C130.469 36.91 130.682 36.9333 130.891 36.9801V38.7184C130.621 38.6358 130.339 38.5978 130.056 38.6061C129.786 38.5951 129.517 38.6427 129.267 38.7456C129.017 38.8485 128.793 39.0042 128.609 39.2021C128.425 39.4 128.286 39.6354 128.201 39.892C128.117 40.1487 128.089 40.4206 128.12 40.6891V46.0592H126.261L126.261 37.0055Z" fill="white"/>
<path d="M139.462 43.3999C139.212 45.0435 137.611 46.1714 135.563 46.1714C132.929 46.1714 131.295 44.4067 131.295 41.5757C131.295 38.7358 132.938 36.894 135.485 36.894C137.99 36.894 139.565 38.6147 139.565 41.3599V41.9966H133.171V42.1089C133.141 42.4421 133.183 42.7778 133.293 43.0936C133.403 43.4094 133.579 43.6982 133.81 43.9408C134.04 44.1833 134.319 44.3741 134.629 44.5004C134.939 44.6267 135.272 44.6856 135.606 44.6733C136.045 44.7145 136.486 44.6128 136.863 44.3833C137.239 44.1539 137.532 43.809 137.697 43.3999L139.462 43.3999ZM133.179 40.6978H137.706C137.722 40.3982 137.677 40.0983 137.572 39.8171C137.468 39.5359 137.306 39.2794 137.097 39.0636C136.889 38.8479 136.638 38.6775 136.361 38.5633C136.083 38.4491 135.785 38.3935 135.485 38.3999C135.182 38.3981 134.882 38.4562 134.602 38.571C134.322 38.6857 134.068 38.8548 133.853 39.0684C133.639 39.2821 133.469 39.536 133.353 39.8157C133.238 40.0953 133.179 40.3951 133.179 40.6978V40.6978Z" fill="white"/>
<path d="M67.903 24.2939C68.2926 24.2659 68.6835 24.3248 69.0476 24.4662C69.4118 24.6076 69.7399 24.8281 70.0085 25.1118C70.2771 25.3954 70.4794 25.7351 70.6008 26.1063C70.7222 26.4776 70.7597 26.8712 70.7106 27.2587C70.7106 29.165 69.6803 30.2607 67.903 30.2607H65.7477V24.2939H67.903ZM66.6744 29.4169H67.7994C68.0778 29.4335 68.3564 29.3879 68.615 29.2833C68.8735 29.1786 69.1055 29.0177 69.294 28.8121C69.4825 28.6066 69.6228 28.3616 69.7046 28.0949C69.7865 27.8283 69.8079 27.5468 69.7672 27.2709C69.8049 26.996 69.7814 26.7163 69.6982 26.4516C69.6151 26.1869 69.4745 25.9439 69.2864 25.74C69.0984 25.5361 68.8675 25.3763 68.6104 25.272C68.3534 25.1678 68.0764 25.1217 67.7994 25.1371H66.6744V29.4169Z" fill="white"/>
<path d="M71.7577 28.0073C71.7294 27.7114 71.7633 27.4128 71.8571 27.1307C71.951 26.8487 72.1027 26.5893 72.3026 26.3693C72.5026 26.1493 72.7463 25.9736 73.0182 25.8533C73.29 25.733 73.584 25.6709 73.8813 25.6709C74.1785 25.6709 74.4725 25.733 74.7444 25.8533C75.0162 25.9736 75.2599 26.1493 75.4599 26.3693C75.6598 26.5893 75.8116 26.8487 75.9054 27.1307C75.9993 27.4128 76.0331 27.7114 76.0048 28.0073C76.0336 28.3035 76.0002 28.6025 75.9066 28.885C75.813 29.1675 75.6613 29.4273 75.4614 29.6478C75.2614 29.8682 75.0175 30.0443 74.7453 30.1648C74.4732 30.2854 74.1789 30.3476 73.8813 30.3476C73.5836 30.3476 73.2893 30.2854 73.0172 30.1648C72.7451 30.0443 72.5012 29.8682 72.3012 29.6478C72.1012 29.4273 71.9495 29.1675 71.8559 28.885C71.7623 28.6025 71.7289 28.3035 71.7577 28.0073ZM75.0907 28.0073C75.0907 27.0312 74.6522 26.4604 73.8827 26.4604C73.1103 26.4604 72.6757 27.0312 72.6757 28.0073C72.6757 28.9912 73.1103 29.5576 73.8827 29.5576C74.6523 29.5576 75.0907 28.9873 75.0907 28.0073H75.0907Z" fill="white"/>
<path d="M81.65 30.2607H80.7281L79.7975 26.9443H79.7272L78.8004 30.2607H77.8873L76.6461 25.7578H77.5475L78.3541 29.1938H78.4205L79.3463 25.7578H80.1989L81.1246 29.1938H81.195L81.9977 25.7578H82.8863L81.65 30.2607Z" fill="white"/>
<path d="M83.9293 25.7579H84.7848V26.4732H84.8512C84.9639 26.2163 85.1539 26.0009 85.3947 25.8571C85.6356 25.7133 85.9153 25.6482 86.195 25.6709C86.414 25.6545 86.634 25.6875 86.8386 25.7676C87.0432 25.8477 87.2272 25.9728 87.3769 26.1336C87.5266 26.2945 87.6381 26.4869 87.7033 26.6968C87.7685 26.9066 87.7857 27.1284 87.7535 27.3457V30.2607H86.8649V27.5689C86.8649 26.8453 86.5504 26.4854 85.8932 26.4854C85.7444 26.4785 85.5959 26.5038 85.4579 26.5596C85.3198 26.6154 85.1955 26.7005 85.0933 26.8089C84.9912 26.9172 84.9137 27.0464 84.8662 27.1876C84.8187 27.3287 84.8022 27.4784 84.818 27.6265V30.2608H83.9293L83.9293 25.7579Z" fill="white"/>
<path d="M89.1696 24H90.0582V30.2607H89.1696V24Z" fill="white"/>
<path d="M91.2948 28.0074C91.2665 27.7114 91.3004 27.4128 91.3943 27.1308C91.4881 26.8487 91.6399 26.5893 91.8399 26.3693C92.0398 26.1494 92.2836 25.9736 92.5554 25.8533C92.8273 25.733 93.1213 25.6709 93.4186 25.6709C93.7159 25.6709 94.0099 25.733 94.2818 25.8533C94.5536 25.9736 94.7974 26.1494 94.9973 26.3693C95.1973 26.5893 95.3491 26.8487 95.4429 27.1308C95.5368 27.4128 95.5707 27.7114 95.5424 28.0074C95.5712 28.3036 95.5377 28.6026 95.4441 28.8851C95.3505 29.1676 95.1988 29.4274 94.9988 29.6478C94.7987 29.8683 94.5548 30.0444 94.2827 30.1649C94.0106 30.2854 93.7162 30.3477 93.4186 30.3477C93.121 30.3477 92.8266 30.2854 92.5545 30.1649C92.2823 30.0444 92.0384 29.8683 91.8384 29.6478C91.6384 29.4274 91.4867 29.1676 91.3931 28.8851C91.2995 28.6026 91.266 28.3036 91.2948 28.0074ZM94.6278 28.0074C94.6278 27.0313 94.1893 26.4605 93.4198 26.4605C92.6474 26.4605 92.2128 27.0313 92.2128 28.0074C92.2128 28.9913 92.6474 29.5577 93.4198 29.5577C94.1893 29.5577 94.6278 28.9873 94.6278 28.0074H94.6278Z" fill="white"/>
<path d="M96.4781 28.9873C96.4781 28.1767 97.0817 27.7095 98.1529 27.6431L99.3727 27.5727V27.1841C99.3727 26.7085 99.0582 26.4399 98.4508 26.4399C97.9547 26.4399 97.611 26.6221 97.5123 26.9404H96.652C96.7428 26.167 97.4703 25.6709 98.4918 25.6709C99.6207 25.6709 100.257 26.2329 100.257 27.1841V30.2607H99.402V29.6279H99.3317C99.1889 29.8549 98.9885 30.04 98.7509 30.1642C98.5133 30.2884 98.247 30.3473 97.9791 30.3349C97.7901 30.3546 97.599 30.3344 97.4183 30.2757C97.2375 30.217 97.0711 30.1211 96.9296 29.9941C96.7882 29.8672 96.675 29.712 96.5972 29.5386C96.5195 29.3651 96.4789 29.1774 96.4781 28.9873ZM99.3727 28.6025V28.2261L98.2731 28.2964C97.653 28.3379 97.3717 28.5488 97.3717 28.9458C97.3717 29.3511 97.7233 29.5869 98.2067 29.5869C98.3483 29.6012 98.4914 29.5869 98.6274 29.5448C98.7634 29.5028 98.8896 29.4337 98.9984 29.3419C99.1072 29.2501 99.1964 29.1373 99.2607 29.0102C99.325 28.8832 99.3631 28.7446 99.3727 28.6025Z" fill="white"/>
<path d="M101.425 28.0073C101.425 26.5845 102.157 25.6831 103.295 25.6831C103.576 25.6702 103.855 25.7376 104.1 25.8775C104.344 26.0173 104.544 26.224 104.675 26.4731H104.742V24H105.63V30.2607H104.779V29.5493H104.709C104.567 29.7968 104.36 30.0008 104.111 30.1393C103.862 30.2778 103.58 30.3455 103.295 30.3349C102.149 30.335 101.425 29.4336 101.425 28.0073ZM102.343 28.0073C102.343 28.9624 102.794 29.5371 103.547 29.5371C104.296 29.5371 104.758 28.9541 104.758 28.0112C104.758 27.0728 104.291 26.4815 103.547 26.4815C102.798 26.4815 102.343 27.0601 102.343 28.0073H102.343Z" fill="white"/>
<path d="M109.307 28.0073C109.278 27.7114 109.312 27.4128 109.406 27.1307C109.5 26.8487 109.652 26.5893 109.851 26.3693C110.051 26.1493 110.295 25.9736 110.567 25.8533C110.839 25.733 111.133 25.6709 111.43 25.6709C111.727 25.6709 112.021 25.733 112.293 25.8533C112.565 25.9736 112.809 26.1493 113.009 26.3693C113.209 26.5893 113.36 26.8487 113.454 27.1307C113.548 27.4128 113.582 27.7114 113.554 28.0073C113.582 28.3035 113.549 28.6025 113.455 28.885C113.362 29.1675 113.21 29.4273 113.01 29.6478C112.81 29.8682 112.566 30.0443 112.294 30.1648C112.022 30.2854 111.728 30.3476 111.43 30.3476C111.132 30.3476 110.838 30.2854 110.566 30.1648C110.294 30.0443 110.05 29.8682 109.85 29.6478C109.65 29.4273 109.498 29.1675 109.405 28.885C109.311 28.6025 109.278 28.3035 109.307 28.0073ZM112.64 28.0073C112.64 27.0312 112.201 26.4604 111.432 26.4604C110.659 26.4604 110.225 27.0312 110.225 28.0073C110.225 28.9912 110.659 29.5576 111.432 29.5576C112.201 29.5576 112.64 28.9873 112.64 28.0073Z" fill="white"/>
<path d="M114.746 25.7579H115.601V26.4732H115.668C115.78 26.2163 115.97 26.0009 116.211 25.8571C116.452 25.7133 116.732 25.6482 117.011 25.6709C117.23 25.6545 117.45 25.6875 117.655 25.7676C117.86 25.8477 118.044 25.9728 118.193 26.1336C118.343 26.2945 118.455 26.4869 118.52 26.6968C118.585 26.9066 118.602 27.1284 118.57 27.3457V30.2607H117.681V27.5689C117.681 26.8453 117.367 26.4854 116.71 26.4854C116.561 26.4785 116.412 26.5038 116.274 26.5596C116.136 26.6154 116.012 26.7005 115.91 26.8089C115.808 26.9172 115.73 27.0464 115.683 27.1876C115.635 27.3287 115.619 27.4784 115.634 27.6265V30.2608H114.746V25.7579Z" fill="white"/>
<path d="M123.592 24.6367V25.7783H124.568V26.5269H123.592V28.8423C123.592 29.314 123.787 29.5205 124.229 29.5205C124.342 29.5201 124.456 29.5133 124.568 29.5V30.2402C124.408 30.2688 124.247 30.284 124.085 30.2856C123.096 30.2856 122.703 29.938 122.703 29.0698V26.5268H121.988V25.7783H122.703V24.6367H123.592Z" fill="white"/>
<path d="M125.781 24H126.662V26.4815H126.732C126.85 26.2221 127.045 26.0055 127.291 25.8612C127.537 25.7168 127.821 25.6518 128.105 25.6748C128.323 25.6629 128.541 25.6993 128.743 25.7814C128.945 25.8634 129.127 25.9891 129.275 26.1494C129.423 26.3098 129.534 26.5008 129.6 26.709C129.666 26.9171 129.685 27.1372 129.656 27.3535V30.2607H128.766V27.5728C128.766 26.8535 128.431 26.4893 127.803 26.4893C127.651 26.4767 127.497 26.4977 127.353 26.5508C127.209 26.6038 127.079 26.6877 126.971 26.7964C126.863 26.9051 126.78 27.0362 126.728 27.1803C126.676 27.3244 126.656 27.4782 126.67 27.6308V30.2607H125.781L125.781 24Z" fill="white"/>
<path d="M134.837 29.045C134.716 29.4565 134.455 29.8125 134.098 30.0507C133.741 30.2888 133.312 30.394 132.886 30.3477C132.589 30.3556 132.295 30.2987 132.022 30.1812C131.75 30.0637 131.506 29.8883 131.308 29.6671C131.11 29.446 130.963 29.1844 130.876 28.9006C130.789 28.6168 130.765 28.3175 130.806 28.0235C130.766 27.7286 130.791 27.4287 130.877 27.144C130.964 26.8594 131.11 26.5966 131.307 26.3735C131.504 26.1504 131.747 25.9723 132.018 25.8511C132.29 25.7299 132.585 25.6684 132.882 25.671C134.135 25.671 134.891 26.527 134.891 27.941V28.2511H131.711V28.3009C131.697 28.4661 131.718 28.6324 131.772 28.7892C131.826 28.9459 131.913 29.0896 132.026 29.2111C132.138 29.3326 132.275 29.4291 132.428 29.4945C132.58 29.5599 132.745 29.5927 132.91 29.5909C133.123 29.6164 133.338 29.5781 133.529 29.4809C133.72 29.3837 133.877 29.2319 133.982 29.045L134.837 29.045ZM131.711 27.5938H133.986C133.997 27.4427 133.976 27.2909 133.925 27.1482C133.874 27.0055 133.794 26.875 133.69 26.7651C133.585 26.6553 133.459 26.5685 133.319 26.5103C133.179 26.4521 133.029 26.4239 132.877 26.4273C132.724 26.4254 132.571 26.4543 132.429 26.5122C132.286 26.5701 132.157 26.656 132.048 26.7647C131.94 26.8734 131.854 27.0028 131.796 27.1452C131.738 27.2876 131.709 27.4401 131.711 27.5938H131.711Z" fill="white"/>
</svg>
