<svg width="176" height="35" viewBox="0 0 176 35" fill="none" xmlns="http://www.w3.org/2000/svg">
<path d="M0.726702 19.3056C2.18824 15.4548 7.66901 12.4865 10.2267 11.4837C21.9191 6.67039 40.7363 4.26347 48.5921 5.46693C56.4479 6.67039 47.8613 9.07692 40.3709 11.4836C32.8805 13.8904 38.3613 15.0937 45.1209 13.8904C51.8806 12.687 65.9479 11.4836 78.0056 10.882C90.0633 10.2803 77.8229 9.07692 65.9479 9.07692C54.0729 9.07692 54.2556 6.67029 58.4575 5.46693C62.6594 4.26357 72.1594 -0.549874 83.3036 0.0518062C94.4479 0.653487 120.756 1.85685 132.083 6.06861C143.409 10.2804 166.794 21.7123 172.458 25.3224C178.121 28.9325 177.39 39.161 167.342 33.1442C157.294 27.1274 136.467 16.2972 90.794 14.4921C45.1209 12.6871 10.4094 22.9157 6.75553 27.1274C3.10168 31.3392 0.543983 31.3392 2.00552 27.7291C3.46706 24.119 3.83247 23.5174 2.37093 24.7207C0.909395 25.9241 -1.10022 24.119 0.726702 19.3056Z" fill="#FF733B"/>
</svg>
